<!-- Generated by IcoMoon.io -->
<svg version="1.1" xmlns="http://www.w3.org/2000/svg" width="1024" height="1024" viewBox="0 0 1024 1024">
<title></title>
<g id="icomoon-ignore">
</g>
<path fill="#0f0" d="M203.998 1016h616.003c108.245 0 195.998-87.754 195.998-195.998v-616.003c0-108.245-87.754-195.998-195.998-195.998h-616.003c-108.245 0-195.998 87.754-195.998 195.998v616.003c0 108.245 87.754 195.998 195.998 195.998z"></path>
<path fill="#fff" d="M832.602 709.143l-129.139-85.428c-15.761-9.555-35.474-9.713-51.408-0.483 0 0 0 0-55.382 32.277-7.423 4.305-14.558 5.119-20.333 4.053-7.329-1.339-12.369-5.35-12.715-5.623-30.434-22.313-66.003-51.854-103.903-89.733-37.879-37.879-67.421-73.447-89.733-103.903-0.252-0.367-4.284-5.407-5.623-12.715-1.029-5.775-0.252-12.873 4.053-20.333 32.277-55.382 32.277-55.382 32.277-55.382 9.266-15.934 9.072-35.669-0.483-51.408l-85.428-129.139c-10.584-15.991-32.235-20.218-47.995-9.303 0 0-40.457 27.699-53.813 37.102-21.399 15.062-28.282 37.973-28.303 69.883-0.058 44.914 38.635 185.609 201.621 348.595v0 0 0 0c163.023 163.023 303.681 201.679 348.595 201.621 31.925-0.021 54.821-6.941 69.883-28.303 9.403-13.356 37.102-53.813 37.102-53.813 10.915-15.761 6.725-37.411-9.303-47.995z"></path>
</svg>
